<?xml version="1.0" encoding="UTF-8"?>
<!DOCTYPE svg PUBLIC "-//W3C//DTD SVG 1.1//EN" "http://www.w3.org/Graphics/SVG/1.1/DTD/svg11.dtd">
<svg xmlns="http://www.w3.org/2000/svg" version="1.1" width="148px" height="131px" style="shape-rendering:geometricPrecision; text-rendering:geometricPrecision; image-rendering:optimizeQuality; fill-rule:evenodd; clip-rule:evenodd" xmlns:xlink="http://www.w3.org/1999/xlink">
<g><path style="opacity:1" fill="#000000" d="M -0.5,-0.5 C 48.8333,-0.5 98.1667,-0.5 147.5,-0.5C 147.5,24.8333 147.5,50.1667 147.5,75.5C 146.448,75.6495 145.448,75.4828 144.5,75C 140.167,70.6667 135.833,66.3333 131.5,62C 126.5,61.6667 121.5,61.3333 116.5,61C 115.544,58.1229 114.211,55.4562 112.5,53C 116.167,52.6667 119.833,52.3333 123.5,52C 128.467,48.034 133.134,43.7007 137.5,39C 145.061,38.723 147.894,34.8897 146,27.5C 145.578,25.5743 144.411,24.5743 142.5,24.5C 135.268,22.5228 131.435,25.5228 131,33.5C 127.833,36.6667 124.667,39.8333 121.5,43C 115.804,43.8299 110.137,43.6632 104.5,42.5C 109.485,37.0147 114.652,31.6813 120,26.5C 120.141,18.815 121.141,11.4817 123,4.5C 115.616,-1.86956 110.45,-0.369565 107.5,9C 111.342,13.4385 112.509,18.6052 111,24.5C 106.984,28.2365 103.151,32.0698 99.5,36C 98.1667,36.6667 96.8333,36.6667 95.5,36C 90.7886,31.6201 85.7886,27.6201 80.5,24C 77.1667,23.3333 73.8333,23.3333 70.5,24C 67.3098,26.3644 64.3098,28.8644 61.5,31.5C 58.5461,33.2805 55.7128,35.2805 53,37.5C 48.6667,33.1667 44.3333,28.8333 40,24.5C 39.3333,20.8333 39.3333,17.1667 40,13.5C 43.6216,8.85009 43.1216,4.68342 38.5,1C 27.9349,0.571469 25.1016,5.07147 30,14.5C 30.3333,18.5 30.6667,22.5 31,26.5C 35.985,31.9853 41.1516,37.3187 46.5,42.5C 40.8625,43.6632 35.1959,43.8299 29.5,43C 26.3333,39.8333 23.1667,36.6667 20,33.5C 19.2874,24.4351 14.7874,21.6018 6.5,25C 2.21912,33.1054 4.55245,37.7721 13.5,39C 17.473,42.973 21.473,46.973 25.5,51C 29.3628,52.3537 33.3628,52.8537 37.5,52.5C 36.9292,55.4769 35.9292,58.3103 34.5,61C 29.5,61.3333 24.5,61.6667 19.5,62C 15.1667,66.3333 10.8333,70.6667 6.5,75C 4.13412,75.4396 1.80079,75.9396 -0.5,76.5C -0.5,50.8333 -0.5,25.1667 -0.5,-0.5 Z"/></g>
<g><path style="opacity:1" fill="#82c779" d="M 61.5,31.5 C 60.5868,33.0861 60.5868,34.5861 61.5,36C 60.7471,37.487 59.9138,37.6537 59,36.5C 57.9563,37.6226 57.2896,38.9559 57,40.5C 56.4646,38.7295 55.6313,38.3961 54.5,39.5C 55.4779,40.8013 55.1445,41.968 53.5,43C 53.8919,44.0105 54.5585,44.5105 55.5,44.5C 55,44.8333 54.5,45.1667 54,45.5C 52.518,43.8881 50.6847,42.8881 48.5,42.5C 48.3285,44.4918 48.9951,46.1585 50.5,47.5C 47.4,46.9892 44.5667,46.9892 42,47.5C 41.6397,49.4211 40.8064,51.0878 39.5,52.5C 39.9388,55.2156 40.1054,57.8823 40,60.5C 38.0224,59.1837 36.5224,59.6837 35.5,62C 32.1182,62.1764 28.7848,62.6764 25.5,63.5C 23.8333,64.5 22.5,65.8333 21.5,67.5C 21.1667,66.8333 20.8333,66.1667 20.5,65.5C 18.6489,68.846 15.8155,70.846 12,71.5C 9.93373,75.2233 9.43373,79.0566 10.5,83C 9.80945,84.0674 9.30945,85.2341 9,86.5C 7.91253,84.0684 7.41253,84.4017 7.5,87.5C 5.80081,87.3398 4.13414,87.5065 2.5,88C 3.7119,89.1068 3.37857,89.6068 1.5,89.5C 0.833333,89.1667 0.166667,88.8333 -0.5,88.5C -0.5,84.5 -0.5,80.5 -0.5,76.5C 1.80079,75.9396 4.13412,75.4396 6.5,75C 10.8333,70.6667 15.1667,66.3333 19.5,62C 24.5,61.6667 29.5,61.3333 34.5,61C 35.9292,58.3103 36.9292,55.4769 37.5,52.5C 33.3628,52.8537 29.3628,52.3537 25.5,51C 21.473,46.973 17.473,42.973 13.5,39C 4.55245,37.7721 2.21912,33.1054 6.5,25C 14.7874,21.6018 19.2874,24.4351 20,33.5C 23.1667,36.6667 26.3333,39.8333 29.5,43C 35.1959,43.8299 40.8625,43.6632 46.5,42.5C 41.1516,37.3187 35.985,31.9853 31,26.5C 30.6667,22.5 30.3333,18.5 30,14.5C 25.1016,5.07147 27.9349,0.571469 38.5,1C 43.1216,4.68342 43.6216,8.85009 40,13.5C 39.3333,17.1667 39.3333,20.8333 40,24.5C 44.3333,28.8333 48.6667,33.1667 53,37.5C 55.7128,35.2805 58.5461,33.2805 61.5,31.5 Z"/></g>
<g><path style="opacity:1" fill="#77be6e" d="M 142.5,24.5 C 136.224,24.7489 132.724,28.0822 132,34.5C 130,36.5688 128.167,38.7355 126.5,41C 126.667,41.5 126.833,42 127,42.5C 127.718,41.5494 128.551,41.3828 129.5,42C 128.167,42.6667 128.167,43.3333 129.5,44C 127.94,46.6592 125.607,47.8259 122.5,47.5C 122.67,48.8221 122.337,49.9887 121.5,51C 118.183,51.4983 114.85,51.665 111.5,51.5C 111.338,53.5273 111.505,55.5273 112,57.5C 112.333,57.1667 112.667,56.8333 113,56.5C 113.96,58.9803 114.793,61.4803 115.5,64C 114.333,64.5 113.5,65.3333 113,66.5C 112.612,65.572 111.945,64.9054 111,64.5C 109.681,65.3185 108.515,66.3185 107.5,67.5C 111.082,68.7572 111.749,70.5906 109.5,73C 110.167,73.3333 110.833,73.6667 111.5,74C 108.49,75.9214 105.156,76.9214 101.5,77C 101.957,77.414 102.291,77.914 102.5,78.5C 101.726,79.7112 100.893,79.7112 100,78.5C 99.1667,80.5 98.3333,82.5 97.5,84.5C 97.7036,83.4706 97.2036,82.4706 96,81.5C 94.4382,85.0121 93.9382,88.5121 94.5,92C 92.8542,93.5548 92.5209,95.2215 93.5,97C 92.2302,98.7754 90.5635,99.942 88.5,100.5C 84.6024,103.269 80.269,105.603 75.5,107.5C 74.4173,108.365 74.2506,109.365 75,110.5C 75.3333,109.833 75.6667,109.167 76,108.5C 77,109.833 78,109.833 79,108.5C 79.6877,109.332 79.521,109.998 78.5,110.5C 76.2984,111.78 74.1317,111.78 72,110.5C 70.5134,111.155 69.3467,112.155 68.5,113.5C 69.0253,114.192 69.6919,114.692 70.5,115C 67.4862,116.672 65.4862,118.672 64.5,121C 65.938,121.219 67.2713,121.719 68.5,122.5C 67.675,123.386 66.675,123.719 65.5,123.5C 58.1289,123.634 51.7956,121.301 46.5,116.5C 49.7176,116.504 53.051,116.838 56.5,117.5C 54.9223,118.298 53.2556,118.798 51.5,119C 54.2208,120.931 56.7208,120.764 59,118.5C 59.3159,119.634 60.1493,120.634 61.5,121.5C 62.9663,120.865 64.2997,120.031 65.5,119C 64.8333,118.667 64.1667,118.333 63.5,118C 64.3578,116.212 65.3578,114.378 66.5,112.5C 65.1468,111.476 64.4802,110.143 64.5,108.5C 66.1439,108.714 67.6439,108.38 69,107.5C 69.3333,108.167 69.6667,108.833 70,109.5C 71.5,108.667 72.6667,107.5 73.5,106C 69.7502,105.821 66.2502,106.654 63,108.5C 62.9822,106.203 63.1489,103.869 63.5,101.5C 62.5,101.5 61.5,101.5 60.5,101.5C 60.4122,98.6913 58.9122,97.358 56,97.5C 53.8656,98.0848 52.3656,99.4181 51.5,101.5C 48.9211,100.112 48.9211,98.6117 51.5,97C 51.1667,96.8333 50.8333,96.6667 50.5,96.5C 49.0992,98.6264 47.2659,100.293 45,101.5C 44.5,101.167 44,100.833 43.5,100.5C 44.4266,99.0944 45.4266,97.5944 46.5,96C 44.4078,95.0475 44.0745,93.7141 45.5,92C 45.1667,91.8333 44.8333,91.6667 44.5,91.5C 43.6628,93.8442 42.3294,95.8442 40.5,97.5C 40.1667,97.3333 39.8333,97.1667 39.5,97C 41.0499,94.905 41.3832,92.7383 40.5,90.5C 39.5,91 38.5,91.5 37.5,92C 35.0531,98.5448 36.7197,103.711 42.5,107.5C 41.7542,108.736 41.4208,110.07 41.5,111.5C 39.7775,109.747 38.2775,107.747 37,105.5C 35.413,100.232 34.0797,94.8987 33,89.5C 30.3333,92.1667 27.6667,94.8333 25,97.5C 24.3333,103.5 24.3333,109.5 25,115.5C 29.829,121.143 29.329,126.143 23.5,130.5C 21.8333,130.5 20.1667,130.5 18.5,130.5C 12.285,126.711 11.4517,122.045 16,116.5C 16.3333,108.833 16.6667,101.167 17,93.5C 22.5,88 28,82.5 33.5,77C 33.2625,74.7116 33.2625,72.2116 33.5,69.5C 30.1501,69.335 26.8168,69.5017 23.5,70C 19.973,73.527 16.473,77.027 13,80.5C 12.2323,88.0822 8.399,91.0822 1.5,89.5C 3.37857,89.6068 3.7119,89.1068 2.5,88C 4.13414,87.5065 5.80081,87.3398 7.5,87.5C 7.41253,84.4017 7.91253,84.0684 9,86.5C 9.30945,85.2341 9.80945,84.0674 10.5,83C 9.43373,79.0566 9.93373,75.2233 12,71.5C 15.8155,70.846 18.6489,68.846 20.5,65.5C 20.8333,66.1667 21.1667,66.8333 21.5,67.5C 22.5,65.8333 23.8333,64.5 25.5,63.5C 28.7848,62.6764 32.1182,62.1764 35.5,62C 36.5224,59.6837 38.0224,59.1837 40,60.5C 40.1054,57.8823 39.9388,55.2156 39.5,52.5C 40.8064,51.0878 41.6397,49.4211 42,47.5C 44.5667,46.9892 47.4,46.9892 50.5,47.5C 48.9951,46.1585 48.3285,44.4918 48.5,42.5C 50.6847,42.8881 52.518,43.8881 54,45.5C 54.5,45.1667 55,44.8333 55.5,44.5C 54.5585,44.5105 53.8919,44.0105 53.5,43C 55.1445,41.968 55.4779,40.8013 54.5,39.5C 55.6313,38.3961 56.4646,38.7295 57,40.5C 57.2896,38.9559 57.9563,37.6226 59,36.5C 59.9138,37.6537 60.7471,37.487 61.5,36C 60.5868,34.5861 60.5868,33.0861 61.5,31.5C 64.3098,28.8644 67.3098,26.3644 70.5,24C 73.8333,23.3333 77.1667,23.3333 80.5,24C 85.7886,27.6201 90.7886,31.6201 95.5,36C 96.8333,36.6667 98.1667,36.6667 99.5,36C 103.151,32.0698 106.984,28.2365 111,24.5C 112.509,18.6052 111.342,13.4385 107.5,9C 110.45,-0.369565 115.616,-1.86956 123,4.5C 121.141,11.4817 120.141,18.815 120,26.5C 114.652,31.6813 109.485,37.0147 104.5,42.5C 110.137,43.6632 115.804,43.8299 121.5,43C 124.667,39.8333 127.833,36.6667 131,33.5C 131.435,25.5228 135.268,22.5228 142.5,24.5 Z"/></g>
<g><path style="opacity:1" fill="#000000" d="M 88.5,100.5 C 79.495,103.467 70.6616,103.134 62,99.5C 58.3777,89.0677 57.711,78.401 60,67.5C 63.1149,69.6471 65.9482,72.1471 68.5,75C 73.6569,77.1681 78.6569,76.8348 83.5,74C 85.4704,71.6843 87.8037,69.8509 90.5,68.5C 91.6652,77.1475 91.8319,85.8142 91,94.5C 90.4275,96.6406 89.5942,98.6406 88.5,100.5 Z"/></g>
<g><path style="opacity:1" fill="#000000" d="M 18.5,130.5 C 12.1667,130.5 5.83333,130.5 -0.5,130.5C -0.5,116.5 -0.5,102.5 -0.5,88.5C 0.166667,88.8333 0.833333,89.1667 1.5,89.5C 8.399,91.0822 12.2323,88.0822 13,80.5C 16.473,77.027 19.973,73.527 23.5,70C 26.8168,69.5017 30.1501,69.335 33.5,69.5C 33.2625,72.2116 33.2625,74.7116 33.5,77C 28,82.5 22.5,88 17,93.5C 16.6667,101.167 16.3333,108.833 16,116.5C 11.4517,122.045 12.285,126.711 18.5,130.5 Z"/></g>
<g><path style="opacity:1" fill="#000000" d="M 147.5,90.5 C 147.5,103.833 147.5,117.167 147.5,130.5C 142.5,130.5 137.5,130.5 132.5,130.5C 138.101,126.814 138.935,122.148 135,116.5C 134.667,108.833 134.333,101.167 134,93.5C 128.667,88.1667 123.333,82.8333 118,77.5C 117.503,74.854 117.336,72.1873 117.5,69.5C 120.85,69.335 124.183,69.5017 127.5,70C 131,73.5 134.5,77 138,80.5C 137.975,86.9729 141.141,90.3062 147.5,90.5 Z"/></g>
<g><path style="opacity:1" fill="#000000" d="M 41.5,111.5 C 42.1667,114.167 43.8333,115.833 46.5,116.5C 51.7956,121.301 58.1289,123.634 65.5,123.5C 78.6873,126.031 91.354,124.198 103.5,118C 112.131,110.574 116.964,101.074 118,89.5C 120.333,91.8333 122.667,94.1667 125,96.5C 125.667,103.5 125.667,110.5 125,117.5C 121.28,122.735 122.114,127.068 127.5,130.5C 92.8333,130.5 58.1667,130.5 23.5,130.5C 29.329,126.143 29.829,121.143 25,115.5C 24.3333,109.5 24.3333,103.5 25,97.5C 27.6667,94.8333 30.3333,92.1667 33,89.5C 34.0797,94.8987 35.413,100.232 37,105.5C 38.2775,107.747 39.7775,109.747 41.5,111.5 Z"/></g>
<g><path style="opacity:1" fill="#71b868" d="M 142.5,24.5 C 144.411,24.5743 145.578,25.5743 146,27.5C 147.894,34.8897 145.061,38.723 137.5,39C 133.134,43.7007 128.467,48.034 123.5,52C 119.833,52.3333 116.167,52.6667 112.5,53C 114.211,55.4562 115.544,58.1229 116.5,61C 121.5,61.3333 126.5,61.6667 131.5,62C 135.833,66.3333 140.167,70.6667 144.5,75C 145.448,75.4828 146.448,75.6495 147.5,75.5C 147.5,80.5 147.5,85.5 147.5,90.5C 141.141,90.3062 137.975,86.9729 138,80.5C 134.5,77 131,73.5 127.5,70C 124.183,69.5017 120.85,69.335 117.5,69.5C 117.336,72.1873 117.503,74.854 118,77.5C 123.333,82.8333 128.667,88.1667 134,93.5C 134.333,101.167 134.667,108.833 135,116.5C 138.935,122.148 138.101,126.814 132.5,130.5C 130.833,130.5 129.167,130.5 127.5,130.5C 122.114,127.068 121.28,122.735 125,117.5C 125.667,110.5 125.667,103.5 125,96.5C 122.667,94.1667 120.333,91.8333 118,89.5C 116.964,101.074 112.131,110.574 103.5,118C 91.354,124.198 78.6873,126.031 65.5,123.5C 66.675,123.719 67.675,123.386 68.5,122.5C 67.2713,121.719 65.938,121.219 64.5,121C 65.4862,118.672 67.4862,116.672 70.5,115C 69.6919,114.692 69.0253,114.192 68.5,113.5C 69.3467,112.155 70.5134,111.155 72,110.5C 74.1317,111.78 76.2984,111.78 78.5,110.5C 79.521,109.998 79.6877,109.332 79,108.5C 78,109.833 77,109.833 76,108.5C 75.6667,109.167 75.3333,109.833 75,110.5C 74.2506,109.365 74.4173,108.365 75.5,107.5C 80.269,105.603 84.6024,103.269 88.5,100.5C 90.5635,99.942 92.2302,98.7754 93.5,97C 92.5209,95.2215 92.8542,93.5548 94.5,92C 93.9382,88.5121 94.4382,85.0121 96,81.5C 97.2036,82.4706 97.7036,83.4706 97.5,84.5C 98.3333,82.5 99.1667,80.5 100,78.5C 100.893,79.7112 101.726,79.7112 102.5,78.5C 102.291,77.914 101.957,77.414 101.5,77C 105.156,76.9214 108.49,75.9214 111.5,74C 110.833,73.6667 110.167,73.3333 109.5,73C 111.749,70.5906 111.082,68.7572 107.5,67.5C 108.515,66.3185 109.681,65.3185 111,64.5C 111.945,64.9054 112.612,65.572 113,66.5C 113.5,65.3333 114.333,64.5 115.5,64C 114.793,61.4803 113.96,58.9803 113,56.5C 112.667,56.8333 112.333,57.1667 112,57.5C 111.505,55.5273 111.338,53.5273 111.5,51.5C 114.85,51.665 118.183,51.4983 121.5,51C 122.337,49.9887 122.67,48.8221 122.5,47.5C 125.607,47.8259 127.94,46.6592 129.5,44C 128.167,43.3333 128.167,42.6667 129.5,42C 128.551,41.3828 127.718,41.5494 127,42.5C 126.833,42 126.667,41.5 126.5,41C 128.167,38.7355 130,36.5688 132,34.5C 132.724,28.0822 136.224,24.7489 142.5,24.5 Z"/></g>
<g><path style="opacity:1" fill="#6fb766" d="M 46.5,116.5 C 43.8333,115.833 42.1667,114.167 41.5,111.5C 41.4208,110.07 41.7542,108.736 42.5,107.5C 36.7197,103.711 35.0531,98.5448 37.5,92C 38.5,91.5 39.5,91 40.5,90.5C 41.3832,92.7383 41.0499,94.905 39.5,97C 39.8333,97.1667 40.1667,97.3333 40.5,97.5C 42.3294,95.8442 43.6628,93.8442 44.5,91.5C 44.8333,91.6667 45.1667,91.8333 45.5,92C 44.0745,93.7141 44.4078,95.0475 46.5,96C 45.4266,97.5944 44.4266,99.0944 43.5,100.5C 44,100.833 44.5,101.167 45,101.5C 47.2659,100.293 49.0992,98.6264 50.5,96.5C 50.8333,96.6667 51.1667,96.8333 51.5,97C 48.9211,98.6117 48.9211,100.112 51.5,101.5C 52.3656,99.4181 53.8656,98.0848 56,97.5C 58.9122,97.358 60.4122,98.6913 60.5,101.5C 61.5,101.5 62.5,101.5 63.5,101.5C 63.1489,103.869 62.9822,106.203 63,108.5C 66.2502,106.654 69.7502,105.821 73.5,106C 72.6667,107.5 71.5,108.667 70,109.5C 69.6667,108.833 69.3333,108.167 69,107.5C 67.6439,108.38 66.1439,108.714 64.5,108.5C 64.4802,110.143 65.1468,111.476 66.5,112.5C 65.3578,114.378 64.3578,116.212 63.5,118C 64.1667,118.333 64.8333,118.667 65.5,119C 64.2997,120.031 62.9663,120.865 61.5,121.5C 60.1493,120.634 59.3159,119.634 59,118.5C 56.7208,120.764 54.2208,120.931 51.5,119C 53.2556,118.798 54.9223,118.298 56.5,117.5C 53.051,116.838 49.7176,116.504 46.5,116.5 Z"/></g>
</svg>
